<svg xmlns="http://www.w3.org/2000/svg" width="15.354" height="27.143" viewBox="0 0 15.354 27.143"><defs><style>.a{fill:#b7b7b7;}</style></defs><path class="a" d="M345.977,372.113a2.2,2.2,0,0,1-.5-1.307,1.608,1.608,0,0,1,.5-1.247l10.452-10.452L345.918,348.6a1.634,1.634,0,0,1-.445-1.277,1.827,1.827,0,0,1,.5-1.277,1.677,1.677,0,0,1,1.277-.564,1.794,1.794,0,0,1,1.217.564L360.29,357.86a1.81,1.81,0,0,1,.416.594,1.856,1.856,0,0,1,0,1.307,1.81,1.81,0,0,1-.416.594l-11.759,11.759a1.608,1.608,0,0,1-1.247.5A2.2,2.2,0,0,1,345.977,372.113Z" transform="translate(-345.471 -345.476)"/></svg>