<svg xmlns="http://www.w3.org/2000/svg" width="8.366" height="14.791" viewBox="0 0 8.366 14.791"><defs><style>.a{fill:#fff;}</style></defs><path class="a" d="M17.55,26.988a1.2,1.2,0,0,1-.275-.712.876.876,0,0,1,.275-.68l5.7-5.7-5.728-5.728a.89.89,0,0,1-.243-.7,1,1,0,0,1,.275-.7.914.914,0,0,1,.7-.307.977.977,0,0,1,.663.307l6.44,6.44a.986.986,0,0,1,.227.324,1.011,1.011,0,0,1,0,.712.986.986,0,0,1-.227.324l-6.407,6.407a.876.876,0,0,1-.68.275A1.2,1.2,0,0,1,17.55,26.988Z" transform="translate(25.64 27.264) rotate(180)"/></svg>