<svg xmlns="http://www.w3.org/2000/svg" width="95" height="29" viewBox="0 0 95 29"><defs><style>.a{fill:#fff;}.b{fill:rgba(0,0,0,0);stroke:gray;stroke-miterlimit:10;}.c{fill:none;}.d{fill:gray;}.e{stroke:none;}</style></defs><rect class="a" width="95" height="29" rx="14.5"/><g class="b"><rect class="e" width="95" height="29" rx="14.5"/><rect class="c" x="0.5" y="0.5" width="94" height="28" rx="14"/></g><rect class="c" width="95" height="29" rx="14.5"/><g transform="translate(69 6)"><rect class="c" width="18" height="18"/><path class="d" d="M7,14A7,7,0,0,1,2.048,2.048a7,7,0,0,1,9.9,9.9A6.956,6.956,0,0,1,7,14ZM7,7.987H7L9.513,10.5l.987-.987L7.987,7,10.5,4.487,9.513,3.5,7,6.013,4.487,3.5,3.5,4.487,6.013,7,3.5,9.513l.987.987L7,7.988Z" transform="translate(2 2)"/></g></svg>