<svg xmlns="http://www.w3.org/2000/svg" width="35.189" height="36" viewBox="0 0 35.189 36"><defs><style>.a{fill:#0a1a27;}</style></defs><path class="a" d="M162.785,212a2.714,2.714,0,0,1-1.95-.81A2.553,2.553,0,0,1,160,209.3V178.7a2.553,2.553,0,0,1,.836-1.89,2.714,2.714,0,0,1,1.95-.81h14.623a2.76,2.76,0,0,1,1.1.225,2.936,2.936,0,0,1,.895.585l9.47,9.18a2.836,2.836,0,0,1,.6.868,2.537,2.537,0,0,1,.232,1.067V198.95h-2.785V188.6H178.1a1.37,1.37,0,0,1-.992-.388,1.286,1.286,0,0,1-.4-.962V178.7H162.785v30.6h19.033V212Zm29.525-.945-4.921-4.77v4.275a1.282,1.282,0,0,1-.4.962,1.382,1.382,0,0,1-1,.388,1.355,1.355,0,0,1-.99-.388,1.3,1.3,0,0,1-.395-.962V203a1.286,1.286,0,0,1,.4-.962,1.37,1.37,0,0,1,.992-.388h7.8a1.365,1.365,0,0,1,.992.39,1.3,1.3,0,0,1,.4.967,1.272,1.272,0,0,1-.4.96,1.381,1.381,0,0,1-.992.382h-4.457l4.967,4.815a1.305,1.305,0,0,1,.018,1.9,1.458,1.458,0,0,1-1.015.4A1.393,1.393,0,0,1,192.31,211.055ZM162.785,209.3v0Z" transform="translate(-160 -176)"/></svg>