<svg xmlns="http://www.w3.org/2000/svg" xmlns:xlink="http://www.w3.org/1999/xlink" width="19.145" height="18.884" viewBox="0 0 19.145 18.884"><defs><style>.a{fill:#1f61c5;}.b{clip-path:url(#a);}</style><clipPath id="a"><rect class="a" width="19.145" height="18.884"/></clipPath></defs><g class="b"><path class="a" d="M.965,16.745a.782.782,0,1,1,0-1.564H5.843a.782.782,0,1,1,0,1.564ZM.965,3.7a.759.759,0,0,1-.782-.782.759.759,0,0,1,.782-.783h9.207a.759.759,0,0,1,.783.783.759.759,0,0,1-.783.782ZM8.79,18.884a.756.756,0,0,1-.782-.782V13.8a.783.783,0,1,1,1.565,0v1.383H18a.782.782,0,1,1,0,1.564H9.573V18.1a.758.758,0,0,1-.783.782M5.66,12.1a.758.758,0,0,1-.782-.783V9.964H.783a.783.783,0,1,1,0-1.565H4.878V6.991a.783.783,0,1,1,1.565,0V11.32a.759.759,0,0,1-.783.783M8.973,9.964a.783.783,0,1,1,0-1.565H18.18a.783.783,0,1,1,0,1.565Zm4.512-4.095a.758.758,0,0,1-.782-.782V.783a.782.782,0,1,1,1.564,0V2.139h4.095a.759.759,0,0,1,.783.783.759.759,0,0,1-.783.782H14.267V5.087a.758.758,0,0,1-.782.782" transform="translate(0 0)"/></g></svg>