<svg xmlns="http://www.w3.org/2000/svg" width="19.688" height="20" viewBox="0 0 19.688 20"><defs><style>.a{fill:#fff;opacity:0.5;}</style></defs><path class="a" d="M129.1,236a1.673,1.673,0,0,1-1.639-1.389l-1.833-10.972a.847.847,0,0,1,.18-.681.764.764,0,0,1,.625-.292H144.49a.764.764,0,0,1,.625.292.847.847,0,0,1,.18.681l-1.833,10.972A1.673,1.673,0,0,1,141.824,236Zm-1.611-11.667,1.583,10h12.778l1.583-10Zm5.75,4.444h4.444a.789.789,0,0,0,.594-.25.833.833,0,0,0,.24-.6.787.787,0,0,0-.24-.583.812.812,0,0,0-.594-.236H133.24a.817.817,0,0,0-.583.24.789.789,0,0,0-.25.594.854.854,0,0,0,.833.833ZM128.8,221a.8.8,0,0,1-.583-.25.815.815,0,0,1-.25-.6.77.77,0,0,1,.25-.583.823.823,0,0,1,.583-.236h13.333a.818.818,0,0,1,.833.833.817.817,0,0,1-.24.583.789.789,0,0,1-.594.25Zm2.222-3.333a.8.8,0,0,1-.583-.25.815.815,0,0,1-.25-.6.77.77,0,0,1,.25-.583.823.823,0,0,1,.583-.236h8.889a.818.818,0,0,1,.833.833.817.817,0,0,1-.24.583.789.789,0,0,1-.594.25Zm-1.944,16.667h0Z" transform="translate(-125.619 -216)"/></svg>