<svg xmlns="http://www.w3.org/2000/svg" width="18.156" height="20" viewBox="0 0 18.156 20"><defs><style>.a{fill:#0a1a27;}</style></defs><path class="a" d="M161.7,251a1.707,1.707,0,0,1-1.7-1.7V238.234a1.69,1.69,0,0,1,.181-.766,1.633,1.633,0,0,1,.5-.6l7.376-5.532a1.809,1.809,0,0,1,.492-.255,1.688,1.688,0,0,1,.535-.085,1.653,1.653,0,0,1,.531.085,1.773,1.773,0,0,1,.485.255l7.376,5.532a1.632,1.632,0,0,1,.5.6,1.69,1.69,0,0,1,.181.766V249.3a1.707,1.707,0,0,1-1.7,1.7h-5.106v-7.943h-4.539V251Z" transform="translate(-160 -231)"/></svg>