<svg xmlns="http://www.w3.org/2000/svg" width="18.1" height="20" viewBox="0 0 18.1 20"><defs><style>.a{fill:#fff;opacity:0.5;}</style></defs><path class="a" d="M9.008,25.033h4.5V17.7H19.6v7.33h4.5V13.721L16.55,8.05,9.008,13.721Zm0,1.509A1.546,1.546,0,0,1,7.5,25.033V13.721a1.558,1.558,0,0,1,.151-.678,1.343,1.343,0,0,1,.452-.528l7.542-5.672a1.655,1.655,0,0,1,.437-.226,1.49,1.49,0,0,1,.935,0,1.655,1.655,0,0,1,.437.226L25,12.515a1.343,1.343,0,0,1,.452.528,1.558,1.558,0,0,1,.151.678V25.033a1.546,1.546,0,0,1-1.508,1.509h-6v-7.33H15.011v7.33ZM16.55,16.526Z" transform="translate(-7.5 -6.542)"/></svg>