<svg xmlns="http://www.w3.org/2000/svg" width="23.702" height="20" viewBox="0 0 23.702 20"><defs><style>.a{fill:#fff;opacity:0.5;}</style></defs><path class="a" d="M6.463,2.411a.556.556,0,0,0-.787,0L2.728,5.342,1.677,4.318a.556.556,0,0,0-.787,0l-.727.728a.556.556,0,0,0,0,.787l2.2,2.194a.592.592,0,0,0,.815,0L3.9,7.3,7.246,3.962a.56.56,0,0,0,0-.787Zm0,7.369a.556.556,0,0,0-.787,0l-2.948,2.95L1.677,11.707a.556.556,0,0,0-.787,0l-.727.726a.556.556,0,0,0,0,.787l2.2,2.2a.591.591,0,0,0,.815,0l.727-.726L7.245,11.35a.556.556,0,0,0,0-.782ZM2.963,17.8a2.222,2.222,0,1,0,0,4.444,2.222,2.222,0,1,0,0-4.444Zm20,.741H9.629a.741.741,0,0,0-.741.741v1.481a.741.741,0,0,0,.741.741H22.962a.741.741,0,0,0,.741-.741V19.285A.741.741,0,0,0,22.962,18.545Zm0-14.814H9.629a.741.741,0,0,0-.741.741V5.953a.741.741,0,0,0,.741.741H22.962a.741.741,0,0,0,.741-.741V4.471A.741.741,0,0,0,22.962,3.731Zm0,7.407H9.629a.741.741,0,0,0-.741.741V13.36a.741.741,0,0,0,.741.741H22.962a.741.741,0,0,0,.741-.741V11.878A.741.741,0,0,0,22.962,11.138Z" transform="translate(0 -2.248)"/></svg>