<svg xmlns="http://www.w3.org/2000/svg" width="19.145" height="10.636" viewBox="0 0 19.145 10.636"><defs><style>.a{fill:#1f61c5;}</style></defs><path class="a" d="M125.318,377.6a.769.769,0,0,1-.568-.231.779.779,0,0,1-.229-.572.763.763,0,0,1,.229-.567.778.778,0,0,1,.568-.226h13.029a.77.77,0,0,1,.568.231.779.779,0,0,1,.229.572.763.763,0,0,1-.229.567.778.778,0,0,1-.568.226Zm0,4.52a.769.769,0,0,1-.568-.231.779.779,0,0,1-.229-.572.763.763,0,0,1,.229-.567.778.778,0,0,1,.568-.226h13.029a.77.77,0,0,1,.568.231.779.779,0,0,1,.229.572.763.763,0,0,1-.229.567.778.778,0,0,1-.568.226Zm0,4.52a.769.769,0,0,1-.568-.231.779.779,0,0,1-.229-.572.763.763,0,0,1,.229-.567.778.778,0,0,1,.568-.226h13.029a.77.77,0,0,1,.568.231.779.779,0,0,1,.229.572.763.763,0,0,1-.229.567.778.778,0,0,1-.568.226Zm-4.525-9.04a.761.761,0,0,1-.567-.231.785.785,0,0,1-.226-.572.761.761,0,0,1,.231-.567A.785.785,0,0,1,120.8,376a.761.761,0,0,1,.567.231.785.785,0,0,1,.226.572.761.761,0,0,1-.231.567A.785.785,0,0,1,120.793,377.6Zm0,4.52a.761.761,0,0,1-.567-.231.785.785,0,0,1-.226-.572.761.761,0,0,1,.231-.567.785.785,0,0,1,.572-.226.761.761,0,0,1,.567.231.785.785,0,0,1,.226.572.761.761,0,0,1-.231.567A.785.785,0,0,1,120.793,382.116Zm0,4.52a.761.761,0,0,1-.567-.231.785.785,0,0,1-.226-.572.761.761,0,0,1,.231-.567.785.785,0,0,1,.572-.226.761.761,0,0,1,.567.231.785.785,0,0,1,.226.572.761.761,0,0,1-.231.567A.785.785,0,0,1,120.793,386.636Z" transform="translate(-120 -376)"/></svg>