<svg xmlns="http://www.w3.org/2000/svg" width="19.667" height="20" viewBox="0 0 19.667 20"><defs><style>.a{fill:#fff;opacity:0.5;}</style></defs><path class="a" d="M134.583,230.25a.823.823,0,0,1-.25-.6.778.778,0,0,1,.25-.59l2.222-2.222h-8.889a.8.8,0,0,1-.594-.241.813.813,0,0,1-.24-.6.8.8,0,0,1,.24-.592.813.813,0,0,1,.594-.236h8.833l-2.25-2.25a.769.769,0,0,1-.222-.568.809.809,0,0,1,.256-.6.769.769,0,0,1,.587-.251.82.82,0,0,1,.6.25l3.694,3.694a.774.774,0,0,1,.25.587.805.805,0,0,1-.056.3.847.847,0,0,1-.194.278l-3.667,3.667a.771.771,0,0,1-.569.222A.815.815,0,0,1,134.583,230.25ZM121.667,236A1.709,1.709,0,0,1,120,234.333V217.667A1.709,1.709,0,0,1,121.667,216h7.25a.8.8,0,0,1,.594.241.814.814,0,0,1,.24.6.8.8,0,0,1-.24.592.813.813,0,0,1-.594.236h-7.25v16.667h7.25a.8.8,0,0,1,.594.241.813.813,0,0,1,.24.6.8.8,0,0,1-.24.592.813.813,0,0,1-.594.236Z" transform="translate(-120 -216)"/></svg>