<svg xmlns="http://www.w3.org/2000/svg" width="23.797" height="20" viewBox="0 0 23.797 20"><defs><style>.a{fill:rgba(255,255,255,0.5);}</style></defs><path class="a" d="M89.624,280.023a4.327,4.327,0,1,1,3.248-1.263A4.4,4.4,0,0,1,89.624,280.023ZM80.9,289.677a.874.874,0,0,1-.9-.9V286.85a3.5,3.5,0,0,1,.526-1.895,3.39,3.39,0,0,1,1.519-1.293,22.03,22.03,0,0,1,4.015-1.383,16.048,16.048,0,0,1,3.564-.421h.692a4.676,4.676,0,0,0-.271.827,8.856,8.856,0,0,0-.15.977h-.271a14.944,14.944,0,0,0-6.857,1.624,1.631,1.631,0,0,0-.722.677,1.817,1.817,0,0,0-.241.887v1.023h8.09a5.845,5.845,0,0,0,.361.977,4.719,4.719,0,0,0,.511.827Zm8.722-11.459a2.623,2.623,0,1,0-1.94-.767A2.629,2.629,0,0,0,89.624,278.218ZM89.624,275.511ZM89.895,287.872Zm8.571-.511a2.413,2.413,0,1,0-1.7-.707A2.317,2.317,0,0,0,98.466,287.361Zm-1.113,1.654a5.333,5.333,0,0,1-1.038-.436,3.822,3.822,0,0,1-.887-.647l-1.323.3a.391.391,0,0,1-.3,0,.363.363,0,0,1-.211-.211l-.391-.692a.326.326,0,0,1-.06-.271.524.524,0,0,1,.15-.271l1.143-1.083a4.729,4.729,0,0,1,0-1.5l-1.143-1.083a.524.524,0,0,1-.15-.271.326.326,0,0,1,.06-.271l.391-.692a.363.363,0,0,1,.211-.211.391.391,0,0,1,.3,0l1.323.3a3.823,3.823,0,0,1,.887-.647,5.338,5.338,0,0,1,1.038-.436l.241-1.594a.468.468,0,0,1,.15-.286.44.44,0,0,1,.3-.105h.842a.44.44,0,0,1,.3.105.468.468,0,0,1,.15.286l.241,1.594a5.338,5.338,0,0,1,1.038.436,3.823,3.823,0,0,1,.887.647l1.323-.3a.391.391,0,0,1,.3,0,.363.363,0,0,1,.211.211l.391.692a.326.326,0,0,1,.06.271.524.524,0,0,1-.15.271L102.5,284.2a4.729,4.729,0,0,1,0,1.5l1.143,1.083a.524.524,0,0,1,.15.271.326.326,0,0,1-.06.271l-.391.692a.363.363,0,0,1-.211.211.391.391,0,0,1-.3,0l-1.323-.3a3.822,3.822,0,0,1-.887.647,5.333,5.333,0,0,1-1.038.436l-.241,1.594a.468.468,0,0,1-.15.286.44.44,0,0,1-.3.105h-.842a.44.44,0,0,1-.3-.105.467.467,0,0,1-.15-.286Z" transform="translate(-80 -271)"/></svg>