<svg xmlns="http://www.w3.org/2000/svg" width="16" height="20" viewBox="0 0 16 20"><defs><style>.a{fill:#fff;opacity:0.5;}</style></defs><path class="a" d="M160.75,193a.724.724,0,0,1-.534-.217.732.732,0,0,1-.216-.538.718.718,0,0,1,.216-.533.731.731,0,0,1,.534-.213h1.35v-7.65a6.068,6.068,0,0,1,1.237-3.712,5.3,5.3,0,0,1,3.263-2.087v-.725a1.236,1.236,0,0,1,.407-.95,1.4,1.4,0,0,1,.988-.375,1.425,1.425,0,0,1,.993.375,1.228,1.228,0,0,1,.412.95v.725a5.348,5.348,0,0,1,3.275,2.087,6.028,6.028,0,0,1,1.25,3.712v7.65h1.325a.724.724,0,0,1,.534.217.732.732,0,0,1,.216.537.718.718,0,0,1-.216.533.731.731,0,0,1-.534.212ZM168,185.625ZM168,196a1.939,1.939,0,0,1-1.4-.587A1.906,1.906,0,0,1,166,194h4a2.006,2.006,0,0,1-2,2Zm-4.4-4.5h8.825v-7.65a4.343,4.343,0,0,0-1.262-3.163,4.2,4.2,0,0,0-3.125-1.288,4.4,4.4,0,0,0-4.437,4.45Z" transform="translate(-160 -176)"/></svg>