<svg xmlns="http://www.w3.org/2000/svg" width="19.556" height="20" viewBox="0 0 19.556 20"><defs><style>.a{fill:#fff;opacity:0.5;}</style></defs><path class="a" d="M100.425,196h-3.3a.745.745,0,0,1-.488-.175.735.735,0,0,1-.263-.45l-.4-2.525a6.7,6.7,0,0,1-1-.475,6.87,6.87,0,0,1-.925-.625l-2.325,1.075a.743.743,0,0,1-.55.038.725.725,0,0,1-.425-.363l-1.65-2.925a.65.65,0,0,1-.075-.525.834.834,0,0,1,.3-.45l2.15-1.575a2.971,2.971,0,0,1-.062-.512q-.012-.288-.012-.513t.012-.512a2.971,2.971,0,0,1,.063-.512l-2.15-1.575a.834.834,0,0,1-.3-.45.65.65,0,0,1,.075-.525l1.65-2.925a.725.725,0,0,1,.425-.362.743.743,0,0,1,.55.037l2.325,1.075a6.873,6.873,0,0,1,.925-.625,5.174,5.174,0,0,1,1-.45l.4-2.55a.735.735,0,0,1,.263-.45.745.745,0,0,1,.488-.175h3.3a.745.745,0,0,1,.488.175.735.735,0,0,1,.263.45l.4,2.525a8.1,8.1,0,0,1,1.013.463,4.3,4.3,0,0,1,.912.637l2.325-1.075a.743.743,0,0,1,.55-.037.725.725,0,0,1,.425.362l1.65,2.9a.714.714,0,0,1,.088.538.741.741,0,0,1-.312.462l-2.15,1.525a3.523,3.523,0,0,1,.062.538q.012.287.013.537t-.013.525a3.481,3.481,0,0,1-.062.525l2.15,1.55a.834.834,0,0,1,.3.45.65.65,0,0,1-.075.525L106.8,192.5a.725.725,0,0,1-.425.363.743.743,0,0,1-.55-.038L103.5,191.75a8.29,8.29,0,0,1-.912.637,4.356,4.356,0,0,1-1.013.463l-.4,2.525a.735.735,0,0,1-.263.45A.745.745,0,0,1,100.425,196Zm-1.65-6.75a3.244,3.244,0,1,0-2.3-.95A3.133,3.133,0,0,0,98.775,189.25Zm0-1.5a1.75,1.75,0,1,1,1.238-.512A1.686,1.686,0,0,1,98.775,187.75ZM98.775,186Zm-1.1,8.5h2.2l.35-2.8a5.9,5.9,0,0,0,1.563-.625,6.407,6.407,0,0,0,1.338-1.025l2.65,1.15,1-1.8-2.35-1.725q.1-.425.163-.837a5.584,5.584,0,0,0,.062-.838,6.953,6.953,0,0,0-.05-.837,5.173,5.173,0,0,0-.175-.838l2.35-1.725-1-1.8-2.65,1.15a5.573,5.573,0,0,0-1.3-1.087,4.217,4.217,0,0,0-1.6-.563l-.35-2.8h-2.2l-.35,2.8a5.3,5.3,0,0,0-1.588.6,5.514,5.514,0,0,0-1.312,1.05l-2.65-1.15-1,1.8,2.35,1.725q-.1.425-.162.838a5.643,5.643,0,0,0,0,1.675q.062.413.162.837l-2.35,1.725,1,1.8,2.65-1.15a6.407,6.407,0,0,0,1.338,1.025,5.9,5.9,0,0,0,1.563.625Z" transform="translate(-89 -176)"/></svg>