<svg xmlns="http://www.w3.org/2000/svg" width="22.332" height="20" viewBox="0 0 22.332 20"><defs><style>.a{fill:#fff;opacity:0.498;}</style></defs><path class="a" d="M80.757,236a1.709,1.709,0,0,1-1.667-1.667v-9.417a3.146,3.146,0,0,1-1.028-1.639,3.476,3.476,0,0,1,.056-1.944l1.194-3.75a2.182,2.182,0,0,1,.778-1.167A2.073,2.073,0,0,1,81.368,216H96.729a2.23,2.23,0,0,1,1.361.431,2.193,2.193,0,0,1,.806,1.153l1.222,3.75a3.393,3.393,0,0,1,.042,1.944,3.23,3.23,0,0,1-1.042,1.639v9.417A1.709,1.709,0,0,1,97.451,236Zm10.861-11.944a1.9,1.9,0,0,0,1.361-.528,1.39,1.39,0,0,0,.444-1.278l-.694-4.583H89.951v4.583a1.864,1.864,0,0,0,.472,1.264A1.516,1.516,0,0,0,91.618,224.056Zm-5.194,0a1.82,1.82,0,0,0,1.319-.528,1.718,1.718,0,0,0,.542-1.278v-4.583H85.507l-.694,4.583a1.452,1.452,0,0,0,.389,1.264A1.6,1.6,0,0,0,86.424,224.056Zm-5.056,0a1.624,1.624,0,0,0,1.153-.458,1.81,1.81,0,0,0,.569-1.125l.722-4.806H81.035l-1.278,4.056a1.749,1.749,0,0,0,.222,1.6A1.588,1.588,0,0,0,81.368,224.056Zm15.472,0a1.631,1.631,0,0,0,1.4-.722,1.742,1.742,0,0,0,.236-1.611L97.2,217.667H94.424l.722,4.806a1.81,1.81,0,0,0,.569,1.125A1.59,1.59,0,0,0,96.84,224.056ZM80.757,234.333H97.451v-8.639q.028.028-.181.028H96.84a3.083,3.083,0,0,1-1.319-.292,4.421,4.421,0,0,1-1.236-.9,3.137,3.137,0,0,1-1.111.875,3.363,3.363,0,0,1-1.472.319,3.889,3.889,0,0,1-1.431-.236,3.435,3.435,0,0,1-1.153-.792,2.679,2.679,0,0,1-1.056.764,3.754,3.754,0,0,1-1.444.264,3.63,3.63,0,0,1-1.528-.306,3.124,3.124,0,0,1-1.139-.889,5.838,5.838,0,0,1-1.306.889,2.94,2.94,0,0,1-1.278.306h-.375a.633.633,0,0,1-.236-.028Zm16.694,0h0Z" transform="translate(-77.95 -216)"/></svg>