<svg xmlns="http://www.w3.org/2000/svg" width="11.765" height="11.807" viewBox="0 0 11.765 11.807"><defs><style>.a{fill:#1f61c5;}</style></defs><path class="a" d="M127.412,221.674l1.886,1.853a.495.495,0,0,1,0,.705.476.476,0,0,1-.689,0l-2.033-2a.475.475,0,0,1-.115-.172.547.547,0,0,1-.033-.189v-2.8a.492.492,0,1,1,.984,0Zm-.459,6.133a5.77,5.77,0,0,1-2.312-.467,6.1,6.1,0,0,1-1.894-1.271,5.936,5.936,0,0,1-1.279-1.886,5.77,5.77,0,0,1-.467-2.312,5.654,5.654,0,0,1,.467-2.3,5.889,5.889,0,0,1,1.279-1.861,6.058,6.058,0,0,1,1.894-1.254,5.858,5.858,0,0,1,2.312-.459,5.578,5.578,0,0,1,2.484.574,6.242,6.242,0,0,1,2.025,1.574V216.9a.492.492,0,1,1,.984,0v2.427a.477.477,0,0,1-.492.492h-2.443a.492.492,0,1,1,0-.984h1.23a5.7,5.7,0,0,0-1.7-1.345,4.46,4.46,0,0,0-2.091-.508,4.885,4.885,0,0,0-3.509,1.4,4.58,4.58,0,0,0-1.459,3.436,4.851,4.851,0,0,0,1.443,3.542,4.769,4.769,0,0,0,3.526,1.459,4.582,4.582,0,0,0,3.231-1.23,5.1,5.1,0,0,0,1.607-3.067.583.583,0,0,1,.18-.336.43.43,0,0,1,.344-.123.458.458,0,0,1,.353.18.51.51,0,0,1,.09.394,6.008,6.008,0,0,1-1.91,3.69A5.533,5.533,0,0,1,126.953,227.807Z" transform="translate(-121 -216)"/></svg>