<svg xmlns="http://www.w3.org/2000/svg" width="14.946" height="15" viewBox="0 0 14.946 15"><defs><style>.a{fill:#1f61c5;}</style></defs><path class="a" d="M129.146,223.208l2.4,2.354a.629.629,0,0,1,0,.9.6.6,0,0,1-.875,0l-2.583-2.542a.6.6,0,0,1-.146-.219.7.7,0,0,1-.042-.24V219.9a.625.625,0,1,1,1.25,0ZM128.563,231a7.33,7.33,0,0,1-2.938-.594,7.755,7.755,0,0,1-2.406-1.615,7.54,7.54,0,0,1-1.625-2.4,7.33,7.33,0,0,1-.594-2.937,7.183,7.183,0,0,1,.594-2.917,7.482,7.482,0,0,1,1.625-2.365,7.7,7.7,0,0,1,2.406-1.594,7.443,7.443,0,0,1,2.938-.583,7.087,7.087,0,0,1,3.156.729,7.928,7.928,0,0,1,2.573,2v-1.583a.625.625,0,1,1,1.25,0v3.083a.606.606,0,0,1-.625.625h-3.1a.625.625,0,1,1,0-1.25h1.563a7.244,7.244,0,0,0-2.156-1.708,5.665,5.665,0,0,0-2.656-.646,6.206,6.206,0,0,0-4.458,1.781,5.818,5.818,0,0,0-1.854,4.365,6.163,6.163,0,0,0,1.833,4.5,6.059,6.059,0,0,0,4.479,1.854,5.821,5.821,0,0,0,4.1-1.562,6.478,6.478,0,0,0,2.042-3.9.741.741,0,0,1,.229-.427.546.546,0,0,1,.438-.156.582.582,0,0,1,.448.229.648.648,0,0,1,.115.5,7.632,7.632,0,0,1-2.427,4.688A7.029,7.029,0,0,1,128.563,231Z" transform="translate(-121 -216)"/></svg>